<svg width="371" height="363" viewBox="0 0 371 363" fill="none" xmlns="http://www.w3.org/2000/svg">
<g filter="url(#filter0_d)">
<ellipse cx="185.5" cy="176.5" rx="185.5" ry="176.5" fill="url(#paint0_linear)"/>
</g>
<path d="M141.677 210.204C143.563 208.382 146.088 207.375 148.709 207.397C151.33 207.42 153.838 208.472 155.691 210.325C157.545 212.179 158.596 214.687 158.619 217.308C158.642 219.929 157.634 222.455 155.813 224.34L129.141 251.004H144.986C147.436 251.005 149.801 251.906 151.631 253.535C153.461 255.164 154.629 257.409 154.913 259.842L154.983 261.002C154.983 263.654 153.93 266.197 152.055 268.072C150.18 269.947 147.638 271 144.986 271H104.997C102.346 271 99.803 269.947 97.9281 268.072C96.0533 266.197 95 263.654 95 261.002V221.011C95 218.36 96.0533 215.817 97.9281 213.942C99.803 212.067 102.346 211.013 104.997 211.013C107.649 211.013 110.191 212.067 112.066 213.942C113.941 215.817 114.994 218.36 114.994 221.011V236.878L141.677 210.204V210.204ZM225.014 271C222.362 271 219.82 269.947 217.945 268.072C216.07 266.197 215.017 263.654 215.017 261.002C215.017 258.351 216.07 255.808 217.945 253.933C219.82 252.058 222.362 251.004 225.014 251.004H240.839L214.197 224.34C212.476 222.619 211.442 220.328 211.289 217.899C211.136 215.469 211.875 213.067 213.367 211.143L214.197 210.204C216.072 208.329 218.614 207.276 221.265 207.276C223.916 207.276 226.458 208.329 228.333 210.204L255.006 236.898V221.011C255.006 218.562 255.905 216.199 257.532 214.369C259.159 212.539 261.401 211.37 263.833 211.083L265.003 211.013C267.654 211.013 270.197 212.067 272.072 213.942C273.947 215.817 275 218.36 275 221.011V261.002C275 263.654 273.947 266.197 272.072 268.072C270.197 269.947 267.654 271 265.003 271H225.014V271ZM144.986 91C147.638 91 150.18 92.0533 152.055 93.9283C153.93 95.8032 154.983 98.3462 154.983 100.998C154.983 103.649 153.93 106.192 152.055 108.067C150.18 109.942 147.638 110.996 144.986 110.996H129.161L155.803 137.67C157.524 139.391 158.558 141.682 158.711 144.111C158.864 146.541 158.125 148.943 156.633 150.867L155.803 151.806C153.928 153.681 151.386 154.734 148.735 154.734C146.084 154.734 143.542 153.681 141.667 151.806L114.994 125.112V140.989C114.994 143.438 114.095 145.801 112.468 147.631C110.841 149.461 108.599 150.63 106.167 150.917L104.997 150.987C102.346 150.987 99.803 149.933 97.9281 148.058C96.0533 146.183 95 143.64 95 140.989V100.998C95 98.3462 96.0533 95.8032 97.9281 93.9283C99.803 92.0533 102.346 91 104.997 91H144.986ZM265.003 91C267.654 91 270.197 92.0533 272.072 93.9283C273.947 95.8032 275 98.3462 275 100.998V140.989C275 143.64 273.947 146.183 272.072 148.058C270.197 149.933 267.654 150.987 265.003 150.987C262.351 150.987 259.809 149.933 257.934 148.058C256.059 146.183 255.006 143.64 255.006 140.989V125.112L228.333 151.806C226.612 153.528 224.321 154.562 221.892 154.715C219.462 154.868 217.06 154.128 215.137 152.636L214.197 151.806C212.323 149.932 211.27 147.389 211.27 144.738C211.27 142.087 212.323 139.544 214.197 137.67L240.85 110.996H225.014C222.565 110.995 220.202 110.096 218.372 108.469C216.542 106.842 215.373 104.599 215.087 102.168L215.017 100.998C215.017 98.3462 216.07 95.8032 217.945 93.9283C219.82 92.0533 222.362 91 225.014 91H265.003Z" fill="white"/>
<defs>
<filter id="filter0_d" x="0" y="0" width="371" height="363" filterUnits="userSpaceOnUse" color-interpolation-filters="sRGB">
<feFlood flood-opacity="0" result="BackgroundImageFix"/>
<feColorMatrix in="SourceAlpha" type="matrix" values="0 0 0 0 0 0 0 0 0 0 0 0 0 0 0 0 0 0 127 0"/>
<feOffset dy="10"/>
<feColorMatrix type="matrix" values="0 0 0 0 0.0941176 0 0 0 0 0.0941176 0 0 0 0 0.211765 0 0 0 1 0"/>
<feBlend mode="normal" in2="BackgroundImageFix" result="effect1_dropShadow"/>
<feBlend mode="normal" in="SourceGraphic" in2="effect1_dropShadow" result="shape"/>
</filter>
<linearGradient id="paint0_linear" x1="185.5" y1="0" x2="185.5" y2="353" gradientUnits="userSpaceOnUse">
<stop stop-color="#CF0706"/>
<stop offset="1" stop-color="#FB4D4F"/>
</linearGradient>
</defs>
</svg>
