<svg width="371" height="363" viewBox="0 0 371 363" fill="none" xmlns="http://www.w3.org/2000/svg">
<g filter="url(#filter0_d)">
<ellipse cx="185.5" cy="176.5" rx="185.5" ry="176.5" fill="url(#paint0_linear)"/>
</g>
<g clip-path="url(#clip0)">
<path d="M111.942 268.194C110.057 270.015 107.532 271.022 104.91 270.999C102.289 270.977 99.7817 269.925 97.9281 268.072C96.0746 266.218 95.0232 263.711 95.0004 261.089C94.9776 258.468 95.9853 255.942 97.8063 254.057L124.479 227.392H108.633C106.183 227.392 103.819 226.491 101.988 224.862C100.158 223.233 98.9903 220.988 98.7061 218.554L98.6361 217.395C98.6361 214.743 99.6894 212.2 101.564 210.325C103.439 208.451 105.982 207.397 108.633 207.397H148.622C151.274 207.397 153.817 208.451 155.691 210.325C157.566 212.2 158.619 214.743 158.619 217.395V257.386C158.619 260.037 157.566 262.58 155.691 264.455C153.817 266.331 151.274 267.384 148.622 267.384C145.971 267.384 143.428 266.331 141.553 264.455C139.678 262.58 138.625 260.037 138.625 257.386V241.52L111.942 268.194ZM261.255 207.276C263.907 207.276 266.449 208.33 268.324 210.204C270.199 212.08 271.252 214.622 271.252 217.274C271.252 219.926 270.199 222.469 268.324 224.343C266.449 226.219 263.907 227.272 261.255 227.272H245.43L272.072 253.936C273.793 255.658 274.827 257.948 274.98 260.378C275.133 262.807 274.394 265.209 272.902 267.133L272.072 268.073C270.198 269.947 267.655 271 265.004 271C262.353 271 259.811 269.947 257.936 268.073L231.264 241.379V257.265C231.263 259.714 230.364 262.077 228.737 263.907C227.11 265.737 224.868 266.907 222.436 267.193L221.266 267.263C218.615 267.263 216.072 266.21 214.197 264.335C212.322 262.46 211.269 259.917 211.269 257.265V217.274C211.269 214.622 212.322 212.08 214.197 210.204C216.072 208.33 218.615 207.276 221.266 207.276H261.255ZM108.745 154.734C106.093 154.734 103.551 153.68 101.676 151.806C99.8008 149.93 98.7476 147.388 98.7476 144.736C98.7476 142.084 99.8008 139.541 101.676 137.666C103.551 135.791 106.093 134.738 108.745 134.738H124.57L97.9278 108.064C96.2065 106.343 95.1725 104.052 95.0197 101.622C94.8669 99.1926 95.6059 96.7906 97.098 94.867L97.9278 93.9272C99.8026 92.0529 102.345 91 104.996 91C107.647 91 110.189 92.0529 112.064 93.9272L138.736 120.621V104.745C138.737 102.296 139.636 99.9325 141.263 98.1026C142.89 96.2726 145.132 95.1035 147.564 94.817L148.734 94.747C151.385 94.747 153.928 95.8004 155.803 97.6753C157.678 99.5503 158.731 102.093 158.731 104.745V144.736C158.731 147.388 157.678 149.93 155.803 151.806C153.928 153.68 151.385 154.734 148.734 154.734H108.745ZM221.267 154.734C218.616 154.734 216.073 153.681 214.198 151.806C212.323 149.931 211.27 147.388 211.27 144.737V104.746C211.27 102.094 212.323 99.551 214.198 97.676C216.073 95.8011 218.616 94.7478 221.267 94.7478C223.919 94.7478 226.461 95.8011 228.336 97.676C230.211 99.551 231.264 102.094 231.264 104.746V120.622L257.937 93.928C259.658 92.2066 261.949 91.1725 264.378 91.0197C266.808 90.8669 269.21 91.606 271.133 93.0981L272.073 93.928C273.947 95.8028 275 98.3453 275 100.996C275 103.647 273.947 106.19 272.073 108.065L245.42 134.739H261.256C263.704 134.739 266.068 135.638 267.898 137.266C269.728 138.893 270.897 141.135 271.183 143.567L271.253 144.737C271.253 147.388 270.2 149.931 268.325 151.806C266.45 153.681 263.907 154.734 261.256 154.734H221.267Z" fill="white"/>
</g>
<defs>
<filter id="filter0_d" x="0" y="0" width="371" height="363" filterUnits="userSpaceOnUse" color-interpolation-filters="sRGB">
<feFlood flood-opacity="0" result="BackgroundImageFix"/>
<feColorMatrix in="SourceAlpha" type="matrix" values="0 0 0 0 0 0 0 0 0 0 0 0 0 0 0 0 0 0 127 0"/>
<feOffset dy="10"/>
<feColorMatrix type="matrix" values="0 0 0 0 0.0941176 0 0 0 0 0.0941176 0 0 0 0 0.211765 0 0 0 1 0"/>
<feBlend mode="normal" in2="BackgroundImageFix" result="effect1_dropShadow"/>
<feBlend mode="normal" in="SourceGraphic" in2="effect1_dropShadow" result="shape"/>
</filter>
<linearGradient id="paint0_linear" x1="185.5" y1="0" x2="185.5" y2="353" gradientUnits="userSpaceOnUse">
<stop stop-color="#CF0706"/>
<stop offset="1" stop-color="#FB4D4F"/>
</linearGradient>
<clipPath id="clip0">
<rect width="180" height="180" fill="white" transform="translate(95 91)"/>
</clipPath>
</defs>
</svg>
